<svg id="Layer_1" data-name="Layer 1" xmlns="http://www.w3.org/2000/svg" viewBox="0 0 193.71 57.55" height="60" width="120">
    <defs>
        <style>
            .cls-1 {
                fill: var(--white);
            }
        </style>
    </defs>
    <path class="cls-1"
        d="M33.79,8.36l-.43-.25L6.93,53.88a3.18,3.18,0,1,1-5.5-3.18L27.85,4.93a3.18,3.18,0,1,1,5.51,3.18l.43.25.43.25A4.18,4.18,0,1,0,27,4.43L.56,50.2A4.18,4.18,0,0,0,7.8,54.38L34.22,8.61Z" />
    <path class="cls-1"
        d="M66,40.35v-.5H13.16a3.18,3.18,0,0,1,0-6.36H66a3.18,3.18,0,0,1,0,6.36v1a4.18,4.18,0,0,0,0-8.36H13.16a4.18,4.18,0,0,0,0,8.36H66Z" />
    <path class="cls-1"
        d="M53.88,54.13l.43-.25L27.89,8.11A3.18,3.18,0,0,1,33.4,4.93L59.82,50.7A3.17,3.17,0,0,1,58.66,55a3.18,3.18,0,0,1-4.35-1.16l-.43.25-.43.25a4.18,4.18,0,0,0,7.24-4.18L34.26,4.43A4.18,4.18,0,0,0,27,8.61L53.45,54.38Z" />
    <path class="cls-1" d="M89,20.09l2.45-6.34,2.45,6.34ZM97.94,30.6h8.78l-11-25.2H87.36l-11,25.2H85l1.69-4.39h9.58Z" />
    <path class="cls-1"
        d="M177.25,24.19V20.88h10.66V14.76H177.25V11.81h12.13V5.4H168.9V30.6h20.95V24.19ZM164.79,30.6l-.07-25.2h-7l-8,13.43L141.54,5.4h-7V30.6h7.73V19.51l5.48,8.82h3.74L157,19.12l.07,11.48Zm-44,.58c4.93,0,8.82-1.8,11.31-5l-5.37-4.79a6.8,6.8,0,0,1-5.51,2.95c-3.52,0-5.9-2.45-5.9-6.3s2.38-6.3,5.9-6.3a6.8,6.8,0,0,1,5.51,3l5.37-4.78c-2.49-3.24-6.38-5-11.31-5-8.1,0-14,5.43-14,13.17S112.7,31.18,120.8,31.18Z" />
    <path class="cls-1"
        d="M188.13,43.3a4,4,0,0,0-3.6,1.81V43.37H183.3v9.47h1.28v-5a3.11,3.11,0,0,1,3.32-3.42c1.8,0,2.84,1,2.84,3v5.37H192V47.35C192,44.63,190.44,43.3,188.13,43.3Zm-12.24,8.49a3.69,3.69,0,1,1,3.51-3.69A3.46,3.46,0,0,1,175.89,51.79Zm0,1.14a4.82,4.82,0,1,0-4.83-4.83A4.67,4.67,0,0,0,175.89,52.93Zm-8.71-.09h1.27V43.37h-1.27Zm.65-11.54a.92.92,0,0,0,.93-.94.91.91,0,0,0-.93-.88.92.92,0,0,0-.94.9A.93.93,0,0,0,167.83,41.3Zm-3.42,10a2.11,2.11,0,0,1-1.41.49,1.52,1.52,0,0,1-1.64-1.73V44.45h2.89V43.37h-2.89V41.3h-1.27v2.07h-1.7v1.08h1.7v5.72a2.51,2.51,0,0,0,2.77,2.76,3.06,3.06,0,0,0,2-.67Zm-10.86,1.59a4.18,4.18,0,0,0,3.71-1.87l-.95-.65a3.22,3.22,0,0,1-2.76,1.38,3.69,3.69,0,0,1,0-7.38,3.22,3.22,0,0,1,2.76,1.41l.95-.65a4.14,4.14,0,0,0-3.71-1.87,4.82,4.82,0,1,0,0,9.63Zm-8.78-9.56v5c0,2.16-1.24,3.44-3.22,3.44-1.8,0-2.85-1-2.85-3.05V43.37h-1.28v5.49c0,2.72,1.59,4.07,4,4.07a3.76,3.76,0,0,0,3.4-1.82v1.73h1.23V43.37Zm-13.25,1.85V43.37h-1.23v9.47h1.28V48c0-2.23,1.21-3.49,3.19-3.49l.31,0V43.3A3.57,3.57,0,0,0,131.52,45.22Zm-4,6.12a2.12,2.12,0,0,1-1.41.49,1.52,1.52,0,0,1-1.64-1.73V44.45h2.88V43.37h-2.88V41.3H123.2v2.07h-1.69v1.08h1.69v5.72A2.51,2.51,0,0,0,126,52.93a3,3,0,0,0,2-.67Zm-10.81,1.59c2.47,0,3.91-1.06,3.91-2.7,0-3.64-6.14-1.71-6.14-4.27,0-.9.76-1.57,2.47-1.57a4.91,4.91,0,0,1,2.79.81l.56-1A6.43,6.43,0,0,0,117,43.3c-2.41,0-3.75,1.15-3.75,2.7,0,3.74,6.14,1.8,6.14,4.26,0,.94-.73,1.55-2.54,1.55a5.72,5.72,0,0,1-3.36-1.06l-.58,1A6.39,6.39,0,0,0,116.72,52.93Zm-9.89-9.63a4,4,0,0,0-3.61,1.81V43.37H102v9.47h1.28v-5a3.1,3.1,0,0,1,3.31-3.42c1.8,0,2.85,1,2.85,3v5.37h1.27V47.35C110.71,44.63,109.13,43.3,106.83,43.3ZM94.58,51.79A3.69,3.69,0,1,1,98.1,48.1,3.46,3.46,0,0,1,94.58,51.79Zm0,1.14a4.82,4.82,0,1,0-4.82-4.83A4.66,4.66,0,0,0,94.58,52.93ZM83.93,53a6.13,6.13,0,0,0,4.63-1.86l-.85-.84A5,5,0,0,1,84,51.76a5.22,5.22,0,1,1,0-10.44,5,5,0,0,1,3.73,1.49l.85-.85A6.13,6.13,0,0,0,84,40.13a6.41,6.41,0,1,0,0,12.82Z" />
</svg>