<svg id="Layer_1" data-name="Layer 1" xmlns="http://www.w3.org/2000/svg" viewBox="0 0 193.71 57.55" height="60" width="120"><defs><style>.cls-1{fill:var(--white)}</style></defs><path class="cls-1" d="M33.79 8.36l-.43-.25L6.93 53.88a3.18 3.18 0 11-5.5-3.18L27.85 4.93a3.18 3.18 0 115.51 3.18l.43.25.43.25A4.18 4.18 0 1027 4.43L.56 50.2a4.18 4.18 0 007.24 4.18L34.22 8.61z"/><path class="cls-1" d="M66 40.35v-.5H13.16a3.18 3.18 0 010-6.36H66a3.18 3.18 0 010 6.36v1a4.18 4.18 0 000-8.36H13.16a4.18 4.18 0 000 8.36H66z"/><path class="cls-1" d="M53.88 54.13l.43-.25L27.89 8.11a3.18 3.18 0 015.51-3.18L59.82 50.7a3.17 3.17 0 01-1.16 4.3 3.18 3.18 0 01-4.35-1.16l-.43.25-.43.25a4.18 4.18 0 007.24-4.18L34.26 4.43A4.18 4.18 0 0027 8.61l26.45 45.77zM89 20.09l2.45-6.34 2.45 6.34zm8.94 10.51h8.78l-11-25.2h-8.36l-11 25.2H85l1.69-4.39h9.58zm79.31-6.41v-3.31h10.66v-6.12h-10.66v-2.95h12.13V5.4H168.9v25.2h20.95v-6.41zm-12.46 6.41l-.07-25.2h-7l-8 13.43-8.18-13.43h-7v25.2h7.73V19.51l5.48 8.82h3.74l5.51-9.21.07 11.48zm-44 .58c4.93 0 8.82-1.8 11.31-5l-5.37-4.79a6.8 6.8 0 01-5.51 2.95c-3.52 0-5.9-2.45-5.9-6.3s2.38-6.3 5.9-6.3a6.8 6.8 0 015.51 3l5.37-4.78c-2.49-3.24-6.38-5-11.31-5-8.1 0-14 5.43-14 13.17s5.91 13.05 14.01 13.05zm67.34 12.12a4 4 0 00-3.6 1.81v-1.74h-1.23v9.47h1.28v-5a3.11 3.11 0 013.32-3.42c1.8 0 2.84 1 2.84 3v5.37H192v-5.44c0-2.72-1.56-4.05-3.87-4.05zm-12.24 8.49a3.69 3.69 0 113.51-3.69 3.46 3.46 0 01-3.51 3.69zm0 1.14a4.82 4.82 0 10-4.83-4.83 4.67 4.67 0 004.83 4.83zm-8.71-.09h1.27v-9.47h-1.27zm.65-11.54a.92.92 0 00.93-.94.91.91 0 00-.93-.88.92.92 0 00-.94.9.93.93 0 00.94.92zm-3.42 10a2.11 2.11 0 01-1.41.49 1.52 1.52 0 01-1.64-1.73v-5.61h2.89v-1.08h-2.89V41.3h-1.27v2.07h-1.7v1.08h1.7v5.72a2.51 2.51 0 002.77 2.76 3.06 3.06 0 002-.67zm-10.86 1.59a4.18 4.18 0 003.71-1.87l-.95-.65a3.22 3.22 0 01-2.76 1.38 3.69 3.69 0 010-7.38 3.22 3.22 0 012.76 1.41l.95-.65a4.14 4.14 0 00-3.71-1.87 4.82 4.82 0 100 9.63zm-8.78-9.56v5c0 2.16-1.24 3.44-3.22 3.44-1.8 0-2.85-1-2.85-3.05v-5.35h-1.28v5.49c0 2.72 1.59 4.07 4 4.07a3.76 3.76 0 003.4-1.82v1.73h1.23v-9.47zm-13.25 1.85v-1.81h-1.23v9.47h1.28V48c0-2.23 1.21-3.49 3.19-3.49h.31V43.3a3.57 3.57 0 00-3.55 1.92zm-4 6.12a2.12 2.12 0 01-1.41.49 1.52 1.52 0 01-1.64-1.73v-5.61h2.88v-1.08h-2.88V41.3h-1.27v2.07h-1.69v1.08h1.69v5.72a2.51 2.51 0 002.8 2.76 3 3 0 002-.67zm-10.81 1.59c2.47 0 3.91-1.06 3.91-2.7 0-3.64-6.14-1.71-6.14-4.27 0-.9.76-1.57 2.47-1.57a4.91 4.91 0 012.79.81l.56-1a6.43 6.43 0 00-3.3-.86c-2.41 0-3.75 1.15-3.75 2.7 0 3.74 6.14 1.8 6.14 4.26 0 .94-.73 1.55-2.54 1.55a5.72 5.72 0 01-3.36-1.06l-.58 1a6.39 6.39 0 003.81 1.18zm-9.89-9.63a4 4 0 00-3.61 1.81v-1.7H102v9.47h1.28v-5a3.1 3.1 0 013.31-3.42c1.8 0 2.85 1 2.85 3v5.37h1.27v-5.44c0-2.72-1.58-4.05-3.88-4.05zm-12.24 8.53a3.69 3.69 0 113.52-3.69 3.46 3.46 0 01-3.52 3.69zm0 1.14a4.82 4.82 0 10-4.82-4.83 4.66 4.66 0 004.82 4.83zM83.93 53a6.13 6.13 0 004.63-1.86l-.85-.84A5 5 0 0184 51.76a5.22 5.22 0 110-10.44 5 5 0 013.73 1.49l.85-.85A6.13 6.13 0 0084 40.13a6.41 6.41 0 100 12.82z"/></svg>